<?xml version="1.0" encoding="iso-8859-1"?>
<!-- Generator: Adobe Illustrator 19.0.0, SVG Export Plug-In . SVG Version: 6.00 Build 0)  -->
<svg version="1.1" id="Layer_1" xmlns="http://www.w3.org/2000/svg" xmlns:xlink="http://www.w3.org/1999/xlink" x="0px" y="0px"
	 viewBox="0 0 512 512" style="enable-background:new 0 0 512 512;" xml:space="preserve">
<path style="fill:#E07188;" d="M499.46,256.369V426.79c0,47.06-109,85.21-243.458,85.21S12.544,473.85,12.544,426.79V256.369H499.46
	L499.46,256.369z"/>
<path style="fill:#E02753;" d="M170.791,256.369v250.26c26.522,3.469,55.23,5.371,85.21,5.371
	c134.458,0,243.458-38.15,243.458-85.21V256.369L170.791,256.369L170.791,256.369z"/>
<path style="fill:#C5142C;" d="M341.212,256.369v250.26c92.43-12.09,158.248-43.272,158.248-79.84V256.369H341.212L341.212,256.369z
	"/>
<ellipse style="fill:#EBE4DD;" cx="255.998" cy="256.374" rx="243.458" ry="85.21"/>
<path style="fill:#D8CCBC;" d="M256.002,171.158v170.421c134.458,0,243.458-38.15,243.458-85.21S390.46,171.158,256.002,171.158z"/>
<rect x="293.256" y="-34.684" transform="matrix(-0.7071 -0.7071 0.7071 -0.7071 441.4097 438.471)" style="fill:#B29A7E;" width="36.518" height="325.001"/>
<rect x="37.99" y="109.558" transform="matrix(-0.7071 -0.7071 0.7071 -0.7071 251.8786 359.9649)" style="fill:#BFA993;" width="325.001" height="36.517"/>
<g>
	<circle style="fill:#F8F8F9;" cx="329.036" cy="256.374" r="36.519"/>
	<circle style="fill:#F8F8F9;" cx="182.961" cy="256.374" r="36.519"/>
</g>
<g>
	<path style="fill:#EDEDED;" d="M182.964,219.848v73.04c20.166,0,36.518-16.352,36.519-36.519
		C219.482,236.201,203.134,219.85,182.964,219.848z"/>
	<path style="fill:#EDEDED;" d="M329.039,219.848v73.04h0.001c20.166,0,36.518-16.352,36.519-36.519
		C365.558,236.199,349.209,219.85,329.039,219.848z"/>
</g>
<g>
</g>
<g>
</g>
<g>
</g>
<g>
</g>
<g>
</g>
<g>
</g>
<g>
</g>
<g>
</g>
<g>
</g>
<g>
</g>
<g>
</g>
<g>
</g>
<g>
</g>
<g>
</g>
<g>
</g>
</svg>
